<?xml version="1.0" standalone="no"?>
<!DOCTYPE svg PUBLIC "-//W3C//DTD SVG 20010904//EN"
 "http://www.w3.org/TR/2001/REC-SVG-20010904/DTD/svg10.dtd">
<svg version="1.0" xmlns="http://www.w3.org/2000/svg"
 width="1024.000000pt" height="1024.000000pt" viewBox="0 0 1024.000000 1024.000000"
 preserveAspectRatio="xMidYMid meet">
<metadata>
Created by potrace 1.16, written by Peter Selinger 2001-2019
</metadata>
<g transform="translate(0.000000,1024.000000) scale(0.100000,-0.100000)"
fill="#000000" stroke="none">
<path d="M4855 7384 c-11 -3 -59 -12 -108 -21 -48 -8 -90 -19 -93 -24 -2 -4
-11 -6 -19 -3 -7 3 -21 1 -30 -4 -16 -8 -16 -9 -1 -15 11 -5 15 -3 10 5 -5 8
1 9 21 4 18 -5 31 -3 35 5 13 20 28 6 19 -18 -5 -14 -17 -23 -29 -23 -11 0
-20 -4 -20 -9 0 -4 10 -8 23 -7 14 1 21 -4 19 -13 -2 -9 4 -12 20 -8 13 3 73
13 133 22 61 9 130 20 155 25 l45 8 -50 3 -50 2 65 6 c42 4 64 10 63 18 -2 8
6 9 27 3 15 -4 30 -7 32 -5 11 9 78 14 78 5 0 -5 -10 -10 -22 -11 -22 -1 -22
-1 2 -9 24 -8 24 -8 -7 -9 -17 -1 -34 3 -37 8 -5 8 -84 -4 -94 -14 -2 -2 34
-3 80 -2 60 2 82 5 81 15 -2 6 2 12 7 12 6 0 10 -4 10 -10 0 -12 53 -25 160
-40 76 -10 129 -21 184 -37 12 -3 16 -1 12 6 -4 6 -17 11 -29 11 -18 0 -19 2
-7 10 8 5 24 7 35 4 16 -4 17 -3 5 5 -8 6 -24 8 -35 5 -19 -5 -19 -4 -3 9 10
8 15 17 11 20 -12 13 -24 7 -33 -18 -9 -24 -29 -32 -44 -18 -3 4 -14 7 -24 8
-9 1 -42 6 -72 10 -49 8 -52 9 -25 15 l30 6 -40 12 c-48 14 -88 16 -80 2 3 -5
11 -7 19 -4 7 3 13 -2 13 -11 0 -17 -13 -20 -22 -5 -3 6 -15 10 -26 10 -11 0
-18 4 -14 9 3 6 -3 15 -12 21 -17 10 -16 10 2 8 11 -1 26 1 34 6 8 5 16 4 21
-4 4 -6 16 -10 26 -8 17 4 16 6 -6 16 -23 10 -24 11 -3 11 12 1 24 -5 26 -11
4 -10 8 -9 16 2 5 8 13 12 16 8 3 -3 -1 -13 -10 -22 -15 -15 -12 -16 42 -14
50 1 52 2 16 5 -24 2 -43 9 -43 15 0 7 15 9 43 5 31 -4 37 -3 24 5 -18 10 -79
12 -232 7 -65 -2 -72 -3 -40 -9 l40 -6 -36 -8 c-23 -5 -45 -4 -58 3 -14 8 -34
8 -63 2 -27 -6 -47 -6 -52 0 -6 5 -14 9 -18 9 -13 0 -9 -28 5 -33 6 -3 1 -6
-12 -6 -18 -1 -22 3 -16 17 3 9 7 22 8 27 2 10 -63 16 -98 9z"/>
<path d="M4252 7203 c-6 -2 -9 -10 -6 -15 4 -7 2 -8 -4 -4 -13 8 -150 -66
-169 -91 -7 -9 -13 -13 -13 -9 0 11 -144 -91 -197 -140 -26 -24 -49 -44 -52
-44 -3 0 -23 -18 -44 -39 -27 -27 -35 -41 -26 -47 8 -5 10 -3 4 6 -6 10 -4 12
8 7 10 -4 16 -2 14 5 -1 6 4 13 12 16 10 3 12 0 7 -13 -5 -15 -4 -16 9 -5 13
11 15 8 11 -21 -3 -19 -5 -36 -5 -38 -1 -2 -9 3 -18 10 -11 10 -14 10 -9 2 5
-9 1 -13 -12 -13 -11 0 -23 -7 -26 -16 -5 -14 -4 -15 8 -5 11 9 16 9 21 0 4
-6 2 -15 -5 -19 -6 -4 -11 -10 -11 -14 3 -19 -1 -19 -14 -2 -11 14 -15 16 -15
5 0 -9 -7 -5 -19 11 -19 24 -19 25 5 49 13 13 22 26 19 29 -6 6 -87 -83 -85
-94 1 -3 -9 -12 -21 -18 -24 -12 -39 -38 -19 -34 7 2 15 -4 17 -12 3 -9 1 -11
-4 -5 -4 6 -13 11 -20 12 -16 3 -66 -64 -53 -72 9 -5 12 -1 12 15 0 3 9 14 20
25 l21 20 -10 -20 c-6 -11 -8 -27 -5 -35 2 -8 1 -12 -3 -8 -5 4 -14 3 -22 -4
-7 -6 -16 -8 -20 -5 -11 12 -32 -14 -26 -30 4 -10 2 -14 -4 -10 -12 8 -96
-131 -87 -145 4 -6 3 -8 -3 -5 -10 6 -37 -43 -33 -59 1 -4 -3 -10 -9 -13 -18
-11 -71 -141 -64 -158 4 -9 2 -14 -3 -10 -6 3 -24 -36 -42 -91 -41 -125 -54
-187 -46 -217 4 -15 2 -25 -5 -25 -6 0 -11 -7 -11 -16 0 -13 3 -14 13 -5 12 9
13 3 10 -31 -5 -49 -13 -64 -13 -25 0 41 -17 41 -24 -1 -14 -92 -18 -352 -7
-447 13 -115 42 -265 50 -260 3 1 6 -12 7 -30 1 -51 56 -207 68 -195 7 7 6 14
-2 22 -17 17 -15 33 3 18 8 -7 15 -21 15 -31 0 -11 4 -19 10 -19 5 0 7 -6 4
-14 -4 -10 0 -14 13 -12 10 2 17 11 17 20 -2 13 1 14 11 6 11 -9 11 -15 -2
-30 -9 -11 -20 -17 -25 -14 -4 3 -8 0 -8 -5 0 -6 5 -11 10 -11 6 0 10 -9 10
-20 0 -11 5 -20 11 -20 6 0 9 -7 5 -15 -3 -9 0 -15 9 -15 8 0 15 9 15 19 0 25
36 17 51 -11 8 -15 8 -19 0 -13 -7 4 -18 1 -26 -5 -17 -15 -20 -30 -4 -30 5 0
7 5 3 12 -4 7 -3 8 4 4 6 -4 8 -14 5 -24 -6 -15 -5 -15 10 -3 9 7 14 17 11 22
-3 5 0 9 5 9 6 0 11 -7 11 -15 0 -8 4 -15 9 -15 11 0 -67 173 -79 178 -5 2 -6
10 -3 19 4 10 2 14 -4 10 -7 -5 -9 1 -5 15 3 11 1 19 -4 16 -5 -4 -10 6 -10
20 -1 15 -7 41 -14 57 -7 17 -14 35 -15 40 -4 33 -18 85 -22 85 -8 0 -33 -28
-33 -37 0 -4 -4 -14 -8 -21 -13 -19 -41 -4 -35 18 3 10 -3 32 -13 48 -9 16
-14 37 -11 46 7 18 37 22 37 5 0 -5 4 -8 9 -4 5 3 12 1 16 -5 3 -5 0 -10 -7
-10 -9 0 -13 -15 -14 -44 -1 -44 -1 -44 16 -23 10 12 15 27 13 35 -3 7 0 12 7
10 7 -2 15 3 18 11 3 8 0 11 -7 7 -7 -5 -10 2 -7 21 2 15 1 22 -1 16 -2 -7 -9
-13 -14 -13 -6 0 -7 5 -4 10 4 6 1 9 -7 8 -8 -2 -14 10 -16 35 -2 27 1 37 12
37 8 0 17 -10 19 -22 2 -13 2 -7 -1 12 -8 55 -10 550 -2 550 4 0 10 19 13 43
4 23 9 58 13 77 5 25 3 32 -4 25 -9 -9 -21 -64 -25 -116 -1 -10 -8 -14 -19
-11 -21 5 -23 20 -4 41 18 22 29 71 16 71 -7 0 -9 8 -5 18 3 11 -2 32 -11 48
-13 23 -15 24 -11 7 3 -13 1 -23 -4 -23 -5 0 -9 -8 -10 -17 0 -10 -2 -13 -5
-8 -2 6 3 33 10 60 8 28 15 41 15 30 1 -11 8 -29 16 -39 8 -11 15 -29 16 -40
0 -12 7 4 14 34 8 33 10 61 4 70 -5 10 -8 11 -9 3 0 -15 -26 -17 -35 -3 -3 5
-1 18 5 27 9 15 10 14 5 -7 -5 -24 -5 -24 10 3 15 26 18 27 29 11 8 -11 15
-13 20 -6 7 11 -2 42 -13 42 -17 1 -31 18 -25 33 10 28 28 19 47 -23 16 -34
17 -44 6 -77 -7 -21 -17 -42 -21 -47 -4 -6 -8 -24 -7 -40 0 -21 11 4 34 74 18
58 42 125 53 150 11 25 22 54 24 65 1 11 9 26 16 34 11 12 11 15 0 22 -10 7
-9 9 5 9 11 0 24 13 32 33 8 17 23 45 34 61 24 35 18 61 -10 45 -13 -6 -19 -6
-19 1 0 5 5 10 10 10 6 0 10 7 10 15 0 18 17 20 22 3 3 -7 7 -3 10 9 4 16 2
20 -8 16 -13 -5 -19 8 -15 31 3 16 -31 -18 -51 -49 -10 -16 -18 -25 -18 -19 0
6 18 34 40 62 27 34 36 52 28 55 -9 4 -7 6 3 6 9 1 22 -6 29 -14 14 -17 31 -8
37 20 2 8 4 22 6 30 2 8 8 20 15 27 8 8 10 5 6 -13 -4 -17 -3 -20 4 -10 7 9
12 10 16 2 6 -10 -6 -15 -26 -12 -5 0 -8 -4 -8 -9 0 -6 8 -10 18 -10 16 -1 16
-1 -1 -11 -9 -6 -14 -15 -11 -21 5 -7 2 -8 -6 -3 -10 6 -12 4 -7 -8 3 -9 3
-17 -2 -19 -4 -2 -17 -23 -29 -48 -21 -41 -21 -43 -3 -20 11 14 21 30 21 35 1
6 14 26 30 45 17 19 30 38 30 42 0 4 10 18 23 30 12 13 40 46 62 73 22 27 51
59 65 72 14 13 25 29 25 36 0 6 5 12 12 12 20 0 37 22 24 30 -6 3 -10 1 -9 -5
2 -7 -5 -14 -14 -15 -10 -2 -18 1 -18 6 0 12 33 27 48 22 22 -8 152 100 134
111 -6 3 -15 -1 -22 -9 -7 -8 -18 -15 -24 -15 -6 0 -19 -9 -29 -20 -9 -11 -14
-20 -10 -20 4 0 1 -6 -5 -12 -18 -18 -70 -18 -77 0 -4 11 -8 12 -20 2 -20 -16
-19 -3 0 16 13 14 16 14 21 1 3 -9 13 -18 21 -21 14 -6 14 -4 2 11 -9 11 -10
14 -1 9 6 -4 12 -2 12 3 0 6 -8 11 -17 11 -34 0 -2 13 39 16 24 1 44 3 46 3 1
1 -7 10 -18 21 -23 23 -18 43 7 33 11 -4 14 -2 9 5 -8 14 27 34 48 26 16 -6
40 28 28 40 -3 4 1 4 10 1 15 -6 15 -8 0 -26 -9 -11 -32 -27 -50 -36 -26 -12
-30 -18 -21 -29 13 -16 33 -19 24 -4 -4 6 -1 9 7 8 7 -2 12 4 11 12 -2 9 4 6
13 -7 l16 -23 44 32 c24 17 44 33 44 34 0 5 -34 -8 -47 -19 -7 -5 -13 -7 -13
-3 0 7 61 46 73 46 5 0 5 -5 1 -12 -4 -6 8 -2 27 9 19 12 68 40 109 62 69 38
72 41 38 36 -29 -3 -38 0 -38 10 0 8 6 14 13 13 8 -2 12 10 12 35 1 38 -1 39
-23 30z"/>
<path d="M6966 6006 c-14 -14 -15 -18 -4 -13 12 4 14 1 11 -14 -6 -22 -23 -36
-23 -19 0 6 -4 8 -10 5 -5 -3 -10 4 -11 17 -1 23 -1 23 -9 -2 l-7 -25 -11 28
c-18 43 -23 32 -7 -14 8 -23 15 -53 15 -68 0 -21 2 -23 11 -11 9 12 10 11 6
-7 -3 -12 3 -71 14 -130 13 -75 18 -157 18 -268 0 -144 -3 -198 -24 -345 -5
-33 -4 -41 4 -30 6 8 11 11 11 5 0 -14 -19 -42 -21 -30 0 8 -37 -108 -39 -123
0 -2 6 0 13 4 7 5 6 0 -3 -11 -17 -20 -71 -160 -73 -187 -1 -10 -5 -18 -8 -18
-4 0 -11 -10 -14 -22 -4 -13 -29 -63 -56 -113 -27 -49 -49 -94 -48 -99 0 -5
-3 -12 -9 -15 -5 -3 -40 -49 -79 -101 -38 -52 -77 -101 -86 -108 -8 -7 -14
-22 -12 -33 2 -11 0 -17 -6 -13 -15 9 -52 -34 -42 -49 4 -6 8 -21 10 -32 1
-11 -1 -14 -3 -7 -3 6 -10 10 -14 7 -5 -3 -11 -1 -15 5 -3 5 2 10 11 10 14 0
15 3 6 12 -9 9 -23 1 -62 -37 -28 -27 -48 -55 -46 -62 3 -7 -1 -10 -8 -7 -6 2
-50 -25 -96 -62 -87 -67 -104 -83 -83 -70 6 3 14 2 18 -4 4 -6 11 -8 16 -4 36
22 85 6 60 -19 -8 -8 -11 -6 -11 7 0 10 -5 14 -11 11 -6 -4 -8 -10 -5 -13 9
-8 -25 -42 -42 -42 -10 0 -12 -4 -6 -13 5 -7 1 -4 -9 6 -14 16 -20 17 -32 7
-12 -10 -13 -16 -4 -27 9 -11 9 -17 0 -26 -10 -9 -12 -9 -9 3 2 9 -6 16 -20
18 -23 3 -23 4 -5 19 17 14 17 14 -5 10 l-23 -5 25 25 c21 20 29 23 40 14 12
-10 14 -9 11 6 -3 19 -21 19 -45 -1 -20 -17 -163 -96 -218 -120 -52 -23 -50
-32 3 -11 20 9 40 14 43 11 2 -3 -3 -8 -12 -11 -9 -3 -23 -7 -31 -10 -8 -2
-15 -9 -15 -16 0 -6 7 -8 16 -5 14 5 15 4 5 -8 -9 -11 -7 -13 14 -13 13 0 23
3 20 6 -5 10 37 8 53 -2 7 -5 12 -3 12 4 0 7 3 10 6 6 19 -18 313 173 370 240
6 7 13 10 16 8 5 -5 88 79 88 89 0 2 -6 6 -12 9 -7 2 -4 3 7 1 22 -3 86 57
149 139 18 23 44 55 59 71 27 29 36 53 15 40 -7 -4 -8 -3 -4 5 4 6 11 9 16 6
19 -12 153 225 220 390 44 108 85 244 76 252 -3 4 -2 11 3 17 31 37 66 362 57
521 -9 143 -27 275 -38 275 -6 0 -7 7 -4 16 8 21 -4 85 -14 79 -5 -3 -6 3 -4
12 2 10 -1 36 -8 58 -13 40 -13 40 -32 21z"/>
<path d="M4466 5364 c5 -18 3 -25 -3 -21 -7 4 -13 -18 -18 -61 -3 -37 -9 -77
-12 -89 -5 -22 -3 -23 61 -23 l66 0 0 36 c0 23 -4 33 -11 28 -6 -3 -9 -14 -6
-24 4 -15 -2 -18 -31 -18 -19 0 -41 6 -49 13 -14 15 -18 69 -4 61 5 -3 12 1
15 10 3 8 2 12 -4 9 -11 -7 -13 15 -5 37 7 18 95 11 95 -7 0 -8 -4 -17 -10
-20 -5 -3 -10 -1 -10 4 0 20 -28 11 -33 -10 -4 -16 -2 -19 10 -15 9 4 24 0 33
-9 16 -14 18 -11 23 47 3 34 3 66 1 70 -3 4 -30 8 -60 8 -54 0 -54 0 -48 -26z"/>
<path d="M4929 4678 c0 -260 0 -498 1 -529 1 -32 -3 -60 -9 -64 -6 -3 -11 1
-11 10 0 9 -4 14 -9 11 -5 -4 -12 0 -15 6 -3 7 -4 2 -3 -12 1 -19 7 -25 25
-24 22 1 22 1 21 -160 0 -109 -3 -155 -10 -141 -7 15 -8 13 -2 -10 4 -16 7
-45 8 -63 1 -18 5 -35 8 -39 4 -3 7 330 7 741 0 410 -2 746 -5 746 -3 0 -5
-213 -6 -472z"/>
<path d="M3473 4524 c-3 -9 0 -20 7 -24 9 -6 7 -11 -9 -19 -21 -12 -21 -13 21
-74 23 -34 47 -68 52 -74 6 -7 29 -36 51 -64 56 -73 227 -249 242 -249 7 0 16
-6 20 -14 11 -20 83 -76 97 -76 6 0 2 6 -8 12 -33 18 -67 61 -62 75 3 7 -1 13
-10 13 -13 0 -13 4 2 30 17 27 19 28 35 14 10 -9 16 -21 15 -27 -2 -7 -1 -9 1
-4 9 14 22 7 16 -9 -3 -8 -11 -13 -18 -10 -6 2 -18 0 -26 -5 -12 -8 -11 -12 6
-24 18 -14 20 -14 26 2 7 17 7 17 14 0 7 -17 8 -17 21 0 12 15 13 15 8 2 -3
-10 -1 -20 5 -24 7 -3 11 2 11 15 0 20 1 20 24 3 19 -15 21 -20 9 -28 -8 -6
-15 -19 -17 -30 -2 -13 -10 -20 -24 -19 -12 1 -19 -3 -16 -8 3 -5 8 -7 12 -4
3 3 11 -2 19 -12 8 -9 12 -11 8 -4 -12 24 5 31 40 16 43 -18 42 -18 48 6 8 29
8 30 1 29 -4 0 -10 3 -13 8 -9 13 -85 71 -91 69 -3 0 -31 24 -63 54 -32 30
-65 54 -74 52 -10 -2 -12 1 -7 10 5 7 -4 5 -20 -5 -15 -10 -38 -21 -51 -23
-19 -3 -22 0 -20 21 3 26 -9 42 -19 26 -4 -5 -2 -12 4 -16 5 -3 10 -11 10 -18
0 -6 -7 -1 -16 12 -16 22 -16 24 0 33 24 13 10 31 -15 18 -18 -10 -24 -3 -20
23 1 4 2 19 3 32 1 14 6 25 10 25 4 0 8 4 8 8 0 4 -9 8 -19 8 -16 0 -18 -4 -9
-20 9 -16 8 -18 -6 -13 -10 4 -15 3 -12 -2 3 -5 -1 -15 -10 -22 -12 -10 -15
-10 -12 2 2 8 -2 13 -9 12 -6 -2 -14 6 -18 16 -3 11 -12 22 -20 25 -8 3 -15
11 -15 17 0 8 5 7 18 -2 16 -13 8 0 -27 41 -2 3 -1 -3 2 -12 4 -10 2 -18 -3
-18 -11 0 -23 37 -16 49 4 5 -1 16 -9 25 -9 8 -15 18 -15 21 1 4 -1 9 -4 12
-3 3 -3 -5 -1 -17 3 -13 10 -27 17 -32 9 -5 10 -8 1 -8 -16 0 -44 41 -36 53 3
6 1 7 -5 3 -7 -4 -13 0 -14 11 0 10 -2 25 -2 33 -1 8 -8 14 -15 12 -7 -1 -10
2 -6 8 10 17 35 -8 28 -27 -4 -11 -2 -14 5 -9 7 4 12 2 12 -3 0 -6 5 -11 11
-11 6 0 1 15 -10 34 -12 18 -21 45 -21 60 0 29 -17 35 -27 10z"/>
<path d="M4872 3772 c-8 -17 -9 -28 -2 -30 5 -2 10 -13 10 -25 -1 -22 -1 -22
-15 -3 -11 14 -15 16 -15 5 0 -12 -2 -12 -10 1 -9 13 -13 12 -30 -9 -15 -18
-20 -19 -20 -7 0 20 -9 20 -34 1 -11 -8 -28 -15 -38 -15 -10 0 -18 -6 -18 -12
0 -9 -4 -8 -10 2 -7 11 -10 0 -10 -38 0 -45 3 -54 23 -61 34 -13 187 -34 194
-27 4 3 -5 6 -18 6 -21 1 -22 2 -7 11 24 13 19 56 -7 64 -12 4 -15 8 -8 11 7
3 9 12 6 20 -4 10 0 15 8 14 43 -6 53 18 22 52 -14 16 -15 23 -5 38 6 11 8 21
4 24 -4 2 -13 -8 -20 -22z"/>
<path d="M5808 3770 c-32 -19 -236 -79 -326 -95 -89 -17 -109 -26 -76 -39 26
-10 41 -7 24 5 -10 7 -11 9 -2 7 8 -2 13 -7 12 -12 -3 -16 25 -26 54 -20 19 4
26 3 22 -5 -4 -6 -16 -11 -27 -11 -10 0 -19 -7 -19 -15 0 -8 8 -15 18 -15 63
1 395 106 385 123 -4 6 0 8 10 4 10 -3 17 -2 17 3 0 6 -10 10 -21 10 -17 0
-19 3 -10 14 9 10 8 15 -4 19 -8 4 -14 1 -12 -5 1 -6 -4 -13 -11 -15 -8 -3
-10 1 -6 11 5 12 0 16 -17 16 l-24 1 25 14 c14 8 21 14 15 14 -5 0 -17 -4 -27
-9z"/>
</g>
</svg>
